<svg width="213" height="160" fill="none" xmlns="http://www.w3.org/2000/svg"><ellipse cx="106.5" cy="146" rx="106.5" ry="14" fill="#E7ECF6"/><path d="M95 83.5v-33m89 33v-33" stroke="#6E7FAB"/><circle cx="95" cy="48" r="4" fill="#C8D3F1"/><circle cx="184" cy="48" r="4" fill="#C8D3F1"/><path fill="#6E7FAB" d="M18.787 85.857h79.426v10.451H18.787z"/><path fill="#C7D2F0" d="M16 71.922h85v22.295H16z"/><circle cx="26.799" cy="82.721" r="3.135" fill="#fff"/><circle cx="37.25" cy="82.721" r="3.135" fill="#DBE2F3"/><circle cx="47.701" cy="82.721" r="3.135" fill="#E2EBFF"/><path fill="#6E7FAB" d="M108.787 85.857h79.426v10.451h-79.426z"/><path fill="#C7D2F0" d="M106 71.922h85v22.295h-85z"/><circle cx="116.799" cy="82.721" r="3.135" fill="#fff"/><circle cx="127.25" cy="82.721" r="3.135" fill="#DBE2F3"/><circle cx="137.701" cy="82.721" r="3.135" fill="#E2EBFF"/><path fill="#6E7FAB" d="M18.787 110.242h79.426v10.451H18.787z"/><path fill="#C7D2F0" d="M16 96.307h85v22.295H16z"/><circle cx="26.799" cy="107.106" r="3.135" fill="#fff"/><circle cx="37.25" cy="107.106" r="3.135" fill="#DBE2F3"/><circle cx="47.701" cy="107.106" r="3.135" fill="#E2EBFF"/><path fill="#6E7FAB" d="M108.787 110.242h79.426v10.451h-79.426z"/><path fill="#C7D2F0" d="M106 96.307h85v22.295h-85z"/><circle cx="116.799" cy="107.106" r="3.135" fill="#fff"/><circle cx="127.25" cy="107.106" r="3.135" fill="#DBE2F3"/><circle cx="137.701" cy="107.106" r="3.135" fill="#E2EBFF"/><path fill="#6E7FAB" d="M18.787 134.627h79.426v10.451H18.787z"/><path fill="#C7D2F0" d="M16 120.693h85v22.295H16z"/><circle cx="26.799" cy="131.492" r="3.135" fill="#fff"/><circle cx="37.25" cy="131.492" r="3.135" fill="#DBE2F3"/><circle cx="47.701" cy="131.492" r="3.135" fill="#E2EBFF"/><path fill="#6E7FAB" d="M108.787 134.627h79.426v10.451h-79.426z"/><path fill="#C7D2F0" d="M106 120.693h85v22.295h-85z"/><circle cx="116.799" cy="131.492" r="3.135" fill="#fff"/><circle cx="127.25" cy="131.492" r="3.135" fill="#DBE2F3"/><circle cx="137.701" cy="131.492" r="3.135" fill="#E2EBFF"/><path fill-rule="evenodd" clip-rule="evenodd" d="M148 34a7 7 0 0 0-7 7v9a7 7 0 0 0 7 7h10.5l5.862 4.69a1 1 0 0 0 1.625-.788l-.026-3.967A7.002 7.002 0 0 0 172 50v-9a7 7 0 0 0-7-7h-17Z" fill="#E2EBFF"/><rect x="147" y="43" width="4" height="4" rx="2" fill="#C8D3F1"/><rect x="155" y="43" width="4" height="4" rx="2" fill="#C8D3F1"/><rect x="163" y="43" width="4" height="4" rx="2" fill="#C8D3F1"/><path d="M46.48 29.25a4 4 0 0 1 2.158-1.988l5.1-1.97 9.41-3.635a4 4 0 0 1 5.173 2.29l9.64 24.953a4 4 0 0 1-2.29 5.173l-18.82 7.27a4 4 0 0 1-5.173-2.29l-4.82-12.476-3.266-8.454a4 4 0 0 1 .132-3.186l2.756-5.688Z" fill="#E2EBFF"/><rect x="51.425" y="44.277" width="19" height="4" rx="2" transform="rotate(-21.122 51.425 44.277)" fill="#C8D3F1"/><rect x="48.902" y="37.747" width="19" height="4" rx="2" transform="rotate(-21.122 48.902 37.747)" fill="#C8D3F1"/><rect x="53.587" y="49.874" width="12" height="4" rx="2" transform="rotate(-21.122 53.587 49.874)" fill="#C8D3F1"/><rect x="91" y="3" width="29" height="25" rx="4" fill="#E2EBFF"/><rect x="94" y="20" width="4" height="4" rx="1" fill="#C8D3F1"/><rect x="94" y="15" width="4" height="4" rx="1" fill="#C8D3F1"/><rect x="99" y="20" width="4" height="4" rx="1" fill="#C8D3F1"/><rect x="99" y="15" width="4" height="4" rx="1" fill="#C8D3F1"/><rect x="104" y="20" width="4" height="4" rx="1" fill="#C8D3F1"/><rect x="104" y="15" width="4" height="4" rx="1" fill="#C8D3F1"/><rect x="109" y="20" width="4" height="4" rx="1" fill="#C8D3F1"/><rect x="109" y="15" width="4" height="4" rx="1" fill="#C8D3F1"/><rect x="114" y="20" width="4" height="4" rx="1" fill="#C8D3F1"/><rect x="114" y="15" width="4" height="4" rx="1" fill="#C8D3F1"/><path fill-rule="evenodd" clip-rule="evenodd" d="M120 12H91V7a4 4 0 0 1 4-4h21a4 4 0 0 1 4 4v5Z" fill="#C8D3F1"/><rect x="99" width="2" height="6" rx="1" fill="#E2EBFF"/><rect x="110" width="2" height="6" rx="1" fill="#E2EBFF"/></svg>